<?xml version="1.0" encoding="UTF-8"?>
<svg version="1.1" xmlns="http://www.w3.org/2000/svg" width="1024" height="1024">
<path d="M0 0 C5.4433688 21.09305411 -3.65916517 49.35374051 -14.07348633 67.74755859 C-30.21401084 94.9491 -54.40983578 115.9161321 -85.29296875 124.125 C-91.32480991 125.54874333 -96.99254091 126.18179036 -103.1875 126.1875 C-103.89841797 126.19974609 -104.60933594 126.21199219 -105.34179688 126.22460938 C-109.11373295 126.23525454 -110.78364543 126.14423638 -114 124 C-98.87603732 103.05784987 -82.43620288 84.09757875 -64 66 C-68.04142516 68.62484315 -71.83189321 71.37553682 -75.5625 74.4375 C-76.47128906 75.17871094 -77.38007812 75.91992188 -78.31640625 76.68359375 C-81.07829699 79.00047336 -81.07829699 79.00047336 -83.71484375 81.78515625 C-86 84 -86 84 -88 84 C-88.33 84.99 -88.66 85.98 -89 87 C-89.66 87 -90.32 87 -91 87 C-91.33 87.99 -91.66 88.98 -92 90 C-93.62706795 91.70534613 -95.29957642 93.36778825 -97 95 C-102.69167671 100.88593189 -107.89862116 106.97526069 -112.75 113.5625 C-113.18521973 114.1507959 -113.62043945 114.7390918 -114.06884766 115.34521484 C-116.62234984 118.8745162 -118.93505285 122.49924603 -121.16503906 126.24194336 C-121.96461029 127.581735 -121.96461029 127.581735 -122.78033447 128.94859314 C-123.1828241 129.6255574 -123.58531372 130.30252167 -124 131 C-123.37015512 131.00238835 -122.74031025 131.00477671 -122.09137917 131.00723743 C-106.73258294 131.06649456 -91.37396624 131.14211263 -76.01534462 131.23571491 C-68.58788094 131.28059079 -61.16046434 131.32002413 -53.73291016 131.34643555 C-47.25550753 131.36948239 -40.7782549 131.40295437 -34.30097139 131.44870156 C-30.87449033 131.4725442 -27.44815699 131.49133137 -24.021595 131.49761391 C-20.18686261 131.50727158 -16.35266613 131.53535277 -12.51806641 131.56762695 C-11.39452759 131.56619186 -10.27098877 131.56475677 -9.11340332 131.5632782 C2.09154959 131.69617869 10.89509628 133.99120186 19 142 C24.31571686 148.48258153 26.33822181 155.12266853 25.875 163.4375 C24.47054479 174.90984758 17.54523486 185.36269635 9 193 C8.34 193 7.68 193 7 193 C6.73115494 193.59448944 6.46230988 194.18897888 6.18531799 194.80148315 C4.99566578 197.00803906 3.81174391 198.42465345 2.03491211 200.17626953 C1.4376683 200.77013458 0.8404245 201.36399963 0.2250824 201.9758606 C-0.41767136 202.60515472 -1.06042511 203.23444885 -1.72265625 203.8828125 C-2.38333603 204.53829071 -3.04401581 205.19376892 -3.72471619 205.86911011 C-5.83261426 207.95921627 -7.94708366 210.04250562 -10.0625 212.125 C-12.1805997 214.2154984 -14.29723182 216.30743041 -16.41099548 218.40231323 C-17.72594066 219.70498383 -19.04354942 221.00497219 -20.36402893 222.30203247 C-20.95812057 222.8895932 -21.55221222 223.47715393 -22.16430664 224.08251953 C-22.6890004 224.59896027 -23.21369415 225.115401 -23.75428772 225.64749146 C-25.1154243 227.00001564 -25.1154243 227.00001564 -26 229 C-26.66 229 -27.32 229 -28 229 C-28.40053337 229.88899994 -28.40053337 229.88899994 -28.80915833 230.79595947 C-30.02074644 233.03839805 -31.24595518 234.48196431 -33.0534668 236.26464844 C-33.67138596 236.87918884 -34.28930511 237.49372925 -34.9259491 238.12689209 C-35.59362808 238.78111145 -36.26130707 239.43533081 -36.94921875 240.109375 C-37.64006058 240.79501526 -38.3309024 241.48065552 -39.04267883 242.18707275 C-41.25292138 244.37952077 -43.46970992 246.5651891 -45.6875 248.75 C-47.88661303 250.9213312 -50.08419366 253.09415664 -52.27876282 255.27008057 C-53.64278233 256.62202456 -55.00946394 257.97129021 -56.37931824 259.31732178 C-59.470206 262.37635383 -62.44962762 265.47323562 -65.27839661 268.77740479 C-68.77918406 272.79951577 -72.46110993 276.59027057 -76.24609375 280.34375 C-77.23005882 281.32559265 -77.23005882 281.32559265 -78.23390198 282.32727051 C-80.29940145 284.38723823 -82.36837595 286.44367366 -84.4375 288.5 C-85.85114434 289.9086205 -87.26455786 291.31747267 -88.67773438 292.7265625 C-92.11583149 296.15372133 -95.55704656 299.57772019 -99 303 C-97.43597946 302.99666908 -97.43597946 302.99666908 -95.84036255 302.99327087 C-85.98366246 302.9729434 -76.12696666 302.95798172 -66.27025032 302.94818783 C-61.20359545 302.94298334 -56.13695759 302.93593015 -51.0703125 302.92456055 C-46.17495432 302.91364485 -41.27961243 302.90770485 -36.38424301 302.90512276 C-34.5224774 302.9032841 -32.66071262 302.89969381 -30.79895401 302.89426994 C-3.75703667 302.818667 -3.75703667 302.818667 2 308 C6.20369049 316.57780086 2.68090281 326.05972754 0.375 334.8125 C0.15199219 335.72 -0.07101562 336.6275 -0.30078125 337.5625 C-1.80536181 342.95192348 -3.55988982 346.28374901 -7.90380859 349.8503418 C-14.15998006 353.28154509 -20.44206621 353.28716066 -27.39953613 353.25828552 C-28.43371689 353.26196123 -29.46789765 353.26563693 -30.53341722 353.26942402 C-33.99172966 353.27938798 -37.44988081 353.27525637 -40.90820312 353.27124023 C-43.39045889 353.27562813 -45.87271318 353.28093052 -48.35496521 353.28707886 C-53.69689517 353.29857385 -59.03878335 353.30423071 -64.38072205 353.30496025 C-72.11182314 353.30628803 -79.84285212 353.3214181 -87.5739277 353.34045542 C-100.12821501 353.3712734 -112.68250415 353.39545035 -125.23681641 353.41333008 C-125.98764726 353.41440276 -126.73847811 353.41547544 -127.51206142 353.41658062 C-135.89009906 353.42840243 -144.26813744 353.43860841 -152.6461792 353.44702148 C-155.68518068 353.45009554 -158.72418215 353.45318431 -161.76318359 353.45629883 C-162.51309659 353.45706417 -163.26300958 353.45782951 -164.03564721 353.45861804 C-176.54404024 353.47170377 -189.05238095 353.49634725 -201.56073523 353.53004223 C-209.27158709 353.55031739 -216.982327 353.56062368 -224.69320571 353.55805302 C-230.6010924 353.55689475 -236.508879 353.57105447 -242.4167347 353.59086227 C-244.83908007 353.59646683 -247.26144354 353.59694239 -249.68379021 353.59192467 C-252.98954854 353.58579458 -256.2947537 353.59799518 -259.60046387 353.61473083 C-260.55970906 353.60851902 -261.51895425 353.6023072 -262.50726748 353.59590715 C-268.07595556 353.64730587 -272.12255775 354.21527227 -277 357 C-278.82849469 360.87640874 -279.19962545 363.05631605 -278.3125 367.25 C-276.72633325 370.63165424 -276.72633325 370.63165424 -274 373 C-268.41676997 374.96497751 -263.48120101 375.2723259 -257.59425354 375.21359253 C-256.66695071 375.21247912 -255.73964787 375.2113657 -254.78424495 375.21021855 C-251.68751713 375.2041629 -248.59104992 375.18380722 -245.49438477 375.16357422 C-243.26991039 375.15645925 -241.04543282 375.15028802 -238.82095337 375.14498901 C-234.03557616 375.13190016 -229.25027401 375.1127898 -224.46493721 375.08919907 C-216.89688372 375.05258667 -209.32884834 375.03340855 -201.76072693 375.0173645 C-191.14930362 374.99355497 -180.537907 374.96560365 -169.92651367 374.93115234 C-169.25370111 374.9289721 -168.58088855 374.92679185 -167.88768774 374.92454554 C-158.33902541 374.89332266 -148.79039549 374.85612946 -139.2417646 374.81654979 C-138.56925523 374.81376317 -137.89674586 374.81097654 -137.20385742 374.80810547 C-136.53217172 374.80531841 -135.86048601 374.80253135 -135.16844619 374.79965983 C-123.95848495 374.75354901 -112.74854274 374.72317723 -101.53849643 374.70498669 C-94.01646505 374.69190843 -86.49479144 374.66080727 -78.97288334 374.61635184 C-74.29188973 374.59287449 -69.61098288 374.58615606 -64.92993546 374.58415604 C-62.76114968 374.57986489 -60.59236482 374.5686945 -58.42365456 374.5500946 C-55.45970994 374.52566051 -52.49674567 374.5260372 -49.5327301 374.53244019 C-48.24997856 374.51291678 -48.24997856 374.51291678 -46.94131285 374.49299896 C-41.2820771 374.54047391 -36.6394435 375.60699584 -32 379 C-29.62136952 382.82022471 -28.9851043 385.13604937 -29.0625 389.625 C-30.25847625 393.9305145 -31.94524597 396.77412764 -35.83984375 399.09765625 C-38.20741105 400.08664006 -40.19991817 400.39999278 -42.75 400.625 C-43.54921875 400.69976563 -44.3484375 400.77453125 -45.171875 400.8515625 C-45.77515625 400.90054687 -46.3784375 400.94953125 -47 401 C-46.59007812 401.55945313 -46.18015625 402.11890625 -45.7578125 402.6953125 C-40.10511741 411.10673916 -37.91773454 420.28661317 -39.625 430.375 C-42.28943146 440.58310305 -48.20875159 449.12998188 -57.125 454.9375 C-65.33962594 459.57016695 -73.77589547 460.95304983 -83 458.9375 C-93.54897512 455.93124521 -101.38209953 450.31046939 -107.24609375 441.02734375 C-111.7857537 432.66306186 -112.83816379 424.32211634 -111 415 C-109.22285845 409.3939262 -106.6463107 404.23969518 -104 399 C-105.16144531 399.0721875 -106.32289063 399.144375 -107.51953125 399.21875 C-120.73164308 399.95086781 -133.89763654 400.04987761 -147.125 400 C-169.76124934 399.91497932 -192.37278753 400.39767562 -215 401 C-214.58355225 401.66459229 -214.16710449 402.32918457 -213.73803711 403.01391602 C-213.1941333 403.89748779 -212.65022949 404.78105957 -212.08984375 405.69140625 C-211.549646 406.56224854 -211.00944824 407.43309082 -210.45288086 408.33032227 C-205.98351656 416.54280734 -206.41219962 425.71575392 -208.6484375 434.56640625 C-211.80555304 443.82052014 -218.67299908 451.35803492 -227.171875 456.109375 C-236.47219966 460.6403024 -246.12771536 460.80960581 -256 458 C-265.56264963 453.72268948 -272.64707944 447.19925109 -276.9921875 437.66015625 C-280.40048165 428.66384495 -280.61898415 420.27836694 -278 411 C-276.26164101 407.15077653 -274.26869767 403.56000043 -272 400 C-272.60585938 399.98582031 -273.21171875 399.97164062 -273.8359375 399.95703125 C-283.33645715 399.41623244 -291.23494133 395.76505867 -298 389 C-306.51270893 378.29113766 -308.49825143 367.40785534 -307 354 C-306.10604197 350.35081747 -304.83998731 347.26613665 -303 344 C-302.1028125 342.39125 -302.1028125 342.39125 -301.1875 340.75 C-298.91191953 337.88927027 -296.57254592 335.95648385 -293.5859375 333.8828125 C-290.79797219 330.57296206 -289.90541892 326.21045322 -290.08813667 321.94015884 C-290.41308944 319.74181551 -290.83842469 317.58990995 -291.31079102 315.41845703 C-291.47520124 314.59535538 -291.63961147 313.77225372 -291.80900383 312.92420959 C-292.35766109 310.19847612 -292.93072629 307.47848549 -293.50390625 304.7578125 C-293.89886538 302.81972483 -294.2922274 300.88131109 -294.68409729 298.94259644 C-295.5217502 294.81476533 -296.36999866 290.68931434 -297.22686768 286.56542969 C-298.57249252 280.08874109 -299.89459034 273.607397 -301.21240234 267.125 C-302.76034035 259.51710575 -304.3129855 251.91021053 -305.87273788 244.30472946 C-309.10188321 228.5545083 -312.24487289 212.78824027 -315.33816528 197.01083374 C-315.98980351 193.6871593 -316.64420987 190.36403776 -317.29960537 187.04110241 C-319.81342438 174.29335679 -322.28840988 161.53938801 -324.6875 148.76953125 C-324.89784882 147.65383759 -325.10819763 146.53814392 -325.32492065 145.38864136 C-326.29393509 140.24732642 -327.25558239 135.10492941 -328.19970703 129.95898438 C-328.53127873 128.18744443 -328.86312896 126.41595658 -329.1953125 124.64453125 C-329.33533691 123.8625386 -329.47536133 123.08054596 -329.61962891 122.27485657 C-331.16271423 113.56734358 -331.16271423 113.56734358 -336.70092773 107.07861328 C-340.48828895 105.84035665 -343.85097021 105.63660281 -347.78515625 105.7421875 C-348.52269638 105.74880402 -349.26023651 105.75542053 -350.02012634 105.76223755 C-352.36802249 105.7854934 -354.71494774 105.82905964 -357.0625 105.875 C-387.08096634 106.33368091 -387.08096634 106.33368091 -393 102 C-395.64703535 97.5000399 -396.52882662 93.93506417 -395.65234375 88.86328125 C-394.3343543 85.09872456 -391.48344038 82.74172019 -388 81 C-380.70750373 79.84455461 -373.32909122 79.8397801 -365.96484375 79.83203125 C-364.84614395 79.82870285 -363.72744415 79.82537445 -362.57484436 79.82194519 C-360.22429817 79.81691173 -357.87374493 79.81453575 -355.52319336 79.81469727 C-351.94437886 79.81250422 -348.36586978 79.7942921 -344.78710938 79.77539062 C-342.49218854 79.77245719 -340.19726626 79.77047206 -337.90234375 79.76953125 C-336.84272934 79.76234573 -335.78311493 79.75516022 -334.69139099 79.74775696 C-327.49365488 79.76972331 -320.404093 79.92794339 -314.125 83.75 C-309.79538584 88.33429735 -308.32752083 93.86671066 -306.95703125 99.8828125 C-306.78370773 100.61950165 -306.61038422 101.3561908 -306.43180847 102.11520386 C-306.06950942 103.66238965 -305.71086448 105.21043525 -305.35571289 106.75927734 C-304.81206141 109.12691007 -304.25558454 111.49125666 -303.69726562 113.85546875 C-303.34559509 115.36440663 -302.99465808 116.87351568 -302.64453125 118.3828125 C-302.47895218 119.08705353 -302.31337311 119.79129456 -302.14277649 120.51687622 C-301.39424294 123.80501365 -301 126.60199669 -301 130 C-300.42156058 129.99770889 -299.84312117 129.99541779 -299.24715328 129.99305725 C-284.62786749 129.94340034 -270.02531631 130.10330828 -255.41015625 130.4375 C-253.35795056 130.48255978 -251.30573995 130.52739561 -249.25352478 130.57202148 C-243.93878175 130.68817565 -238.62410968 130.80730198 -233.30944824 130.92712402 C-227.85152196 131.04962419 -222.39353178 131.16920764 -216.93554688 131.2890625 C-206.29030139 131.52324426 -195.64512881 131.7605771 -185 132 C-187.98935255 135.22217169 -191.44662201 136.78558719 -195.375 138.625 C-208.59109712 145.05538074 -219.63413598 153.63413598 -230 164 C-231.9943173 164.09405142 -233.99199543 164.11743249 -235.98852539 164.11352539 C-237.26977798 164.11344986 -238.55103058 164.11337433 -239.87110901 164.11329651 C-241.27995848 164.10818909 -242.68880756 164.10297309 -244.09765625 164.09765625 C-245.53112234 164.09579202 -246.96458907 164.09436814 -248.39805603 164.09336853 C-252.17759957 164.08954372 -255.9571049 164.07971377 -259.7366333 164.06866455 C-263.59069298 164.05844963 -267.44475882 164.05387074 -271.29882812 164.04882812 C-278.86590287 164.03809146 -286.43294609 164.02101549 -294 164 C-293.72752441 165.28511475 -293.45504883 166.57022949 -293.17431641 167.89428711 C-289.42914816 185.66371022 -285.91717969 203.4772356 -282.4119873 221.29516602 C-281.35856475 226.64851353 -280.30119901 232.00107807 -279.24316406 237.35351562 C-276.2906221 252.29331117 -273.33833023 267.23302718 -270.43313599 282.18211365 C-269.44068785 287.28717228 -268.43868367 292.39034967 -267.43585205 297.49337769 C-266.98301579 299.80863754 -266.53400402 302.12464911 -266.08905029 304.44143677 C-265.48049275 307.60876959 -264.85896839 310.77329669 -264.234375 313.9375 C-263.98063614 315.28659706 -263.98063614 315.28659706 -263.72177124 316.66294861 C-262.58803765 322.31576415 -261.19647918 328.12532406 -258 333 C-255.14536712 334.75382816 -252.94731315 335.27622032 -249.6171875 335.4140625 C-248.26669312 335.47231201 -248.26669312 335.47231201 -246.88891602 335.53173828 C-245.39702759 335.57790283 -245.39702759 335.57790283 -243.875 335.625 C-242.82562256 335.66222168 -241.77624512 335.69944336 -240.69506836 335.73779297 C-229.32050715 336.08332104 -217.94144087 336.10643257 -206.5625 336.125 C-205.61042664 336.12767883 -204.65835327 336.13035767 -203.6774292 336.13311768 C-200.95288209 336.13893045 -198.22845386 336.13726487 -195.50390625 336.1328125 C-194.67477219 336.13478638 -193.84563812 336.13676025 -192.99137878 336.13879395 C-188.86330873 336.22756819 -188.86330873 336.22756819 -185 335 C-185 334.34 -185 333.68 -185 333 C-187.03691231 331.6105021 -189.07574016 330.32900453 -191.1875 329.0625 C-215.94885195 313.63563423 -234.09970176 290.60306965 -240.875 262.0625 C-247.17785948 234.91076027 -243.37350717 206.15008187 -229 182 C-213.57393595 157.48969823 -190.28929394 139.23901124 -162 132 C-161.01 132 -160.02 132 -159 132 C-165.09879946 115.54243564 -174.795751 100.39340127 -186.75 87.55859375 C-188 86 -188 86 -188 84 C-188.66 84 -189.32 84 -190 84 C-190 83.34 -190 82.68 -190 82 C-190.66 82 -191.32 82 -192 82 C-193.15341846 80.88153361 -194.30039264 79.75595496 -195.421875 78.60546875 C-218.53177296 55.09515177 -248.80372921 46.21239459 -280.79125977 44.07495117 C-281.8440638 43.99837029 -281.8440638 43.99837029 -282.9181366 43.92024231 C-284.84621611 43.78168189 -286.77539403 43.65865839 -288.70458984 43.53662109 C-292.20399311 42.96678198 -294.18993599 42.13345013 -297 40 C-299.95172298 34.79259351 -300.47016615 30.41087513 -300.375 24.5 C-300.38660156 23.77941406 -300.39820313 23.05882812 -300.41015625 22.31640625 C-300.38228839 17.1794314 -299.61794344 13.46265464 -297 9 C-292.17949353 5.4382608 -287.82649412 5.69213291 -282.125 6.125 C-281.26076416 6.18139648 -280.39652832 6.23779297 -279.50610352 6.29589844 C-241.72812131 8.99792652 -206.1948031 17.54172153 -179 46 C-179 46.66 -179 47.32 -179 48 C-178.34 48 -177.68 48 -177 48 C-158.792066 68.46046192 -149.26460231 93.02743953 -142 119 C-141.8047876 118.31711914 -141.6095752 117.63423828 -141.40844727 116.93066406 C-128.96333977 73.84728235 -108.51917401 39.41032821 -68.51660156 16.83422852 C-47.89630226 5.71160963 -23.4060854 -0.28324196 0 0 Z M-61 62 C-61.33 62.66 -61.66 63.32 -62 64 C-61.01 63.67 -60.02 63.34 -59 63 C-59.66 62.67 -60.32 62.34 -61 62 Z M-57 165 C-57.03440186 165.5669458 -57.06880371 166.1338916 -57.10424805 166.71801758 C-57.94580602 179.68583884 -59.78880274 191.70074671 -63.48095703 204.16064453 C-64.11814086 206.41866098 -64.59290296 208.69006733 -65 211 C-60.62483074 209.54161025 -58.25976662 206.42792552 -55.2734375 203.04296875 C-49.37972472 196.36418612 -43.14902046 190.10036988 -36.76464844 183.88964844 C-35.6919873 182.83438965 -35.6919873 182.83438965 -34.59765625 181.7578125 C-33.63098022 180.81639404 -33.63098022 180.81639404 -32.64477539 179.85595703 C-30.9693671 177.96543397 -29.92771047 176.34434541 -29 174 C-29.07533247 171.3727086 -29.07533247 171.3727086 -30 169 C-32.87813157 167.08124562 -33.77667104 166.70673448 -37.01953125 166.3671875 C-37.79490234 166.28339844 -38.57027344 166.19960938 -39.36914062 166.11328125 C-40.17544922 166.03464844 -40.98175781 165.95601562 -41.8125 165.875 C-42.60720703 165.78863281 -43.40191406 165.70226562 -44.22070312 165.61328125 C-48.49981287 165.16731944 -52.69140332 164.90286578 -57 165 Z M-66 211 C-65 213 -65 213 -65 213 Z M-86.375 414.1875 C-88.43171643 417.74720151 -89.18553801 420.93362519 -89 425 C-87.78437047 429.29045718 -86.61611229 431.44120048 -83.3125 434.4375 C-78.66816004 436.62822639 -74.84547793 436.95793978 -70.0390625 435.33984375 C-66.51513418 433.62248628 -65.0952141 432.15472291 -63 428.75 C-61.75322302 424.07458633 -61.86225421 421.70268261 -63 417 C-65.56323751 412.72793749 -68.39536568 410.82266775 -73 409 C-78.49334752 409 -82.31062157 410.44399355 -86.375 414.1875 Z M-254 414 C-257.251842 419.45470271 -257.44773642 423.01602279 -256 429 C-253.76502877 432.54512678 -251.8318217 434.40282386 -248 436 C-243.40475247 436.71852961 -239.8554304 436.39603259 -235.625 434.4375 C-232.03977323 431.10836085 -230.13402859 427.93745988 -229.90625 422.9453125 C-230.26599267 418.17872213 -231.60452983 415.29845674 -235 412 C-241.45700096 408.15558014 -248.50478177 408.89729735 -254 414 Z " fill="#242E1F" transform="translate(672,252)"/>
<path d="M0 0 C5.4433688 21.09305411 -3.65916517 49.35374051 -14.07348633 67.74755859 C-30.21401084 94.9491 -54.40983578 115.9161321 -85.29296875 124.125 C-91.32480991 125.54874333 -96.99254091 126.18179036 -103.1875 126.1875 C-103.89841797 126.19974609 -104.60933594 126.21199219 -105.34179688 126.22460938 C-109.11373295 126.23525454 -110.78364543 126.14423638 -114 124 C-98.87603732 103.05784987 -82.43620288 84.09757875 -64 66 C-68.04142516 68.62484315 -71.83189321 71.37553682 -75.5625 74.4375 C-76.92568359 75.54931641 -76.92568359 75.54931641 -78.31640625 76.68359375 C-81.07829699 79.00047336 -81.07829699 79.00047336 -83.71484375 81.78515625 C-86 84 -86 84 -88 84 C-88.33 84.99 -88.66 85.98 -89 87 C-89.66 87 -90.32 87 -91 87 C-91.33 87.99 -91.66 88.98 -92 90 C-93.62706795 91.70534613 -95.29957642 93.36778825 -97 95 C-102.69167671 100.88593189 -107.89862116 106.97526069 -112.75 113.5625 C-113.18521973 114.1507959 -113.62043945 114.7390918 -114.06884766 115.34521484 C-117.73811338 120.4166593 -120.74558608 125.5759768 -124 131 C-83.08 131.33 -42.16 131.66 0 132 C0 132.33 0 132.66 0 133 C-31.68 133.33 -63.36 133.66 -96 134 C-90.72 136.64 -85.44 139.28 -80 142 C-72.15299757 146.85766817 -61.27851372 154.44297256 -57 163 C-54.98330173 164.13350534 -54.98330173 164.13350534 -53 165 C-54.32 165 -55.64 165 -57 165 C-56.95359375 165.85078125 -56.9071875 166.7015625 -56.859375 167.578125 C-56.52550447 178.78663555 -58.28880021 189.14153092 -61 200 C-61.1659668 200.67514648 -61.33193359 201.35029297 -61.50292969 202.04589844 C-66.41177765 220.9464328 -84.24395524 234.46859951 -97.625 247.6875 C-100.39594995 250.43080296 -103.16538515 253.17559522 -105.93197632 255.92329407 C-107.64197107 257.62104869 -109.35463214 259.31612288 -111.07022095 261.00822449 C-111.83547089 261.76694351 -112.60072083 262.52566254 -113.38916016 263.30737305 C-114.06435699 263.97431686 -114.73955383 264.64126068 -115.43521118 265.32841492 C-117.08402385 266.93074153 -117.08402385 266.93074153 -118 269 C-118.66 269 -119.32 269 -120 269 C-120 269.66 -120 270.32 -120 271 C-121.61853788 272.7134441 -123.29662963 274.37086375 -125 276 C-125.92504837 276.92504837 -126.85009674 277.85009674 -127.80317688 278.80317688 C-146.20211792 297.20211792 -164.60105896 315.60105896 -183 334 C-184.89566979 332.91832862 -186.78830507 331.83133829 -188.6796875 330.7421875 C-189.73397949 330.13745605 -190.78827148 329.53272461 -191.87451172 328.90966797 C-196.61184039 326.01516829 -200.79521184 322.60989852 -205 319 C-206.23363281 317.96746094 -206.23363281 317.96746094 -207.4921875 316.9140625 C-229.37514379 298.03063916 -240.97108594 272.45431762 -244 244 C-245.86701555 216.82056215 -236.24273356 188.87934163 -219 168 C-203.76386693 150.59127268 -184.5914962 137.78098893 -162 132 C-161.01 132 -160.02 132 -159 132 C-165.09879946 115.54243564 -174.795751 100.39340127 -186.75 87.55859375 C-188 86 -188 86 -188 84 C-188.66 84 -189.32 84 -190 84 C-190 83.34 -190 82.68 -190 82 C-190.66 82 -191.32 82 -192 82 C-193.15341846 80.88153361 -194.30039264 79.75595496 -195.421875 78.60546875 C-218.53177296 55.09515177 -248.80372921 46.21239459 -280.79125977 44.07495117 C-281.8440638 43.99837029 -281.8440638 43.99837029 -282.9181366 43.92024231 C-284.84621611 43.78168189 -286.77539403 43.65865839 -288.70458984 43.53662109 C-292.20399311 42.96678198 -294.18993599 42.13345013 -297 40 C-299.95172298 34.79259351 -300.47016615 30.41087513 -300.375 24.5 C-300.38660156 23.77941406 -300.39820313 23.05882812 -300.41015625 22.31640625 C-300.38228839 17.1794314 -299.61794344 13.46265464 -297 9 C-292.17949353 5.4382608 -287.82649412 5.69213291 -282.125 6.125 C-281.26076416 6.18139648 -280.39652832 6.23779297 -279.50610352 6.29589844 C-241.72812131 8.99792652 -206.1948031 17.54172153 -179 46 C-179 46.66 -179 47.32 -179 48 C-178.34 48 -177.68 48 -177 48 C-158.792066 68.46046192 -149.26460231 93.02743953 -142 119 C-141.8047876 118.31711914 -141.6095752 117.63423828 -141.40844727 116.93066406 C-128.96333977 73.84728235 -108.51917401 39.41032821 -68.51660156 16.83422852 C-47.89630226 5.71160963 -23.4060854 -0.28324196 0 0 Z M-61 62 C-61.33 62.66 -61.66 63.32 -62 64 C-61.01 63.67 -60.02 63.34 -59 63 C-59.66 62.67 -60.32 62.34 -61 62 Z " fill="#E98F1F" transform="translate(672,252)"/>
<path d="M0 0 C5.4433688 21.09305411 -3.65916517 49.35374051 -14.07348633 67.74755859 C-30.21401084 94.9491 -54.40983578 115.9161321 -85.29296875 124.125 C-91.32480991 125.54874333 -96.99254091 126.18179036 -103.1875 126.1875 C-103.89841797 126.19974609 -104.60933594 126.21199219 -105.34179688 126.22460938 C-109.11373295 126.23525454 -110.78364543 126.14423638 -114 124 C-98.87603732 103.05784987 -82.43620288 84.09757875 -64 66 C-68.04142516 68.62484315 -71.83189321 71.37553682 -75.5625 74.4375 C-76.92568359 75.54931641 -76.92568359 75.54931641 -78.31640625 76.68359375 C-81.07829699 79.00047336 -81.07829699 79.00047336 -83.71484375 81.78515625 C-86 84 -86 84 -88 84 C-88.33 84.99 -88.66 85.98 -89 87 C-89.66 87 -90.32 87 -91 87 C-91.33 87.99 -91.66 88.98 -92 90 C-93.62706795 91.70534613 -95.29957642 93.36778825 -97 95 C-113.76572164 112.33793057 -126.05465811 132.6380767 -137 154 C-141.95 153.34 -146.9 152.68 -152 152 C-152.4021875 150.43765625 -152.4021875 150.43765625 -152.8125 148.84375 C-155.68899047 138.14471609 -159.6805873 128.69733642 -165 119 C-165.33435059 118.37963867 -165.66870117 117.75927734 -166.01318359 117.12011719 C-171.8197573 106.38150508 -178.41541806 96.50710694 -186.75 87.55859375 C-188 86 -188 86 -188 84 C-188.66 84 -189.32 84 -190 84 C-190 83.34 -190 82.68 -190 82 C-190.66 82 -191.32 82 -192 82 C-193.15341846 80.88153361 -194.30039264 79.75595496 -195.421875 78.60546875 C-218.53177296 55.09515177 -248.80372921 46.21239459 -280.79125977 44.07495117 C-281.8440638 43.99837029 -281.8440638 43.99837029 -282.9181366 43.92024231 C-284.84621611 43.78168189 -286.77539403 43.65865839 -288.70458984 43.53662109 C-292.20399311 42.96678198 -294.18993599 42.13345013 -297 40 C-299.95172298 34.79259351 -300.47016615 30.41087513 -300.375 24.5 C-300.38660156 23.77941406 -300.39820313 23.05882812 -300.41015625 22.31640625 C-300.38228839 17.1794314 -299.61794344 13.46265464 -297 9 C-292.17949353 5.4382608 -287.82649412 5.69213291 -282.125 6.125 C-281.26076416 6.18139648 -280.39652832 6.23779297 -279.50610352 6.29589844 C-241.72812131 8.99792652 -206.1948031 17.54172153 -179 46 C-179 46.66 -179 47.32 -179 48 C-178.34 48 -177.68 48 -177 48 C-158.792066 68.46046192 -149.26460231 93.02743953 -142 119 C-141.8047876 118.31711914 -141.6095752 117.63423828 -141.40844727 116.93066406 C-128.96333977 73.84728235 -108.51917401 39.41032821 -68.51660156 16.83422852 C-47.89630226 5.71160963 -23.4060854 -0.28324196 0 0 Z M-61 62 C-61.33 62.66 -61.66 63.32 -62 64 C-61.01 63.67 -60.02 63.34 -59 63 C-59.66 62.67 -60.32 62.34 -61 62 Z " fill="#242E1F" transform="translate(672,252)"/>
<path d="M0 0 C3.27275026 0 5.846632 0.29925156 9 1 C4.64369269 5.35630731 -2.07705664 5.78100041 -8 6 C-10.71576115 5.81084251 -13.30847085 5.44043204 -16 5 C-12.59648662 2.96780512 -9.6767073 2.63108961 -5.75 2.375 C-4.67234375 2.30023437 -3.5946875 2.22546875 -2.484375 2.1484375 C-1.66453125 2.09945312 -0.8446875 2.05046875 0 2 C0 1.34 0 0.68 0 0 Z " fill="#2C3625" transform="translate(436,706)"/>
<path d="M0 0 C4.57412135 2.59893258 6.61697155 4.68691767 9.00390625 9.33203125 C10.51173624 11.85690735 12.64344539 13.29149791 15 15 C17.3125 17.125 17.3125 17.125 19 19 C19 19.66 19 20.32 19 21 C11.02214115 17.47983612 4.72702583 9.12008266 0 2 C0 1.34 0 0.68 0 0 Z " fill="#DB891A" transform="translate(447,548)"/>
<path d="M0 0 C9.24 0 18.48 0 28 0 C25.1709277 2.8290723 24.61855575 3.37611108 21 4 C21 3.01 21 2.02 21 1 C14.07 1 7.14 1 0 1 C0 0.67 0 0.34 0 0 Z " fill="#665A30" transform="translate(459,384)"/>
<path d="M0 0 C0.33 0.99 0.66 1.98 1 3 C-0.485 5.475 -0.485 5.475 -2 8 C2.95 8.33 7.9 8.66 13 9 C13 9.33 13 9.66 13 10 C10.39555652 10.05394705 7.79223002 10.09364469 5.1875 10.125 C4.44951172 10.14175781 3.71152344 10.15851563 2.95117188 10.17578125 C-0.91246426 10.21074628 -2.70903668 10.19397555 -6 8 C-4.02 5.36 -2.04 2.72 0 0 Z " fill="#625328" transform="translate(564,368)"/>
<path d="M0 0 C14.78132118 0.96355353 14.78132118 0.96355353 21 2 C21 2.33 21 2.66 21 3 C18.43721301 3.05420701 15.87558517 3.09377007 13.3125 3.125 C12.59126953 3.14175781 11.87003906 3.15851563 11.12695312 3.17578125 C6.95123219 3.21391569 3.7505862 2.8789919 0 1 C0 0.67 0 0.34 0 0 Z " fill="#242611" transform="translate(616,415)"/>
<path d="M0 0 C0.66 0.66 1.32 1.32 2 2 C-1.3 5.3 -4.6 8.6 -8 12 C-8.66 11.34 -9.32 10.68 -10 10 C-6.7 6.7 -3.4 3.4 0 0 Z " fill="#2D3627" transform="translate(674,448)"/>
<path d="M0 0 C1 2 1 2 0.9375 3.9375 C-0.49252493 7.08355485 -2.92626518 7.69202774 -6 9 C-5.52797514 4.75177626 -3.03344482 2.80010291 0 0 Z " fill="#32341C" transform="translate(628,442)"/>
<path d="M0 0 C0.58203125 1.84375 0.58203125 1.84375 1 4 C-0.3125 6.5 -0.3125 6.5 -2 9 C-2.68096422 10.32608822 -3.35330586 11.65686601 -4 13 C-5.0169313 10.34501768 -5.13022151 9.30844625 -4.00390625 6.640625 C-3.52824219 5.85171875 -3.05257812 5.0628125 -2.5625 4.25 C-2.08941406 3.45078125 -1.61632812 2.6515625 -1.12890625 1.828125 C-0.75636719 1.22484375 -0.38382813 0.6215625 0 0 Z " fill="#293425" transform="translate(550,320)"/>
<path d="M0 0 C0.33 0.99 0.66 1.98 1 3 C-0.43359375 5.04296875 -0.43359375 5.04296875 -2.4375 7.1875 C-3.09621094 7.90292969 -3.75492188 8.61835938 -4.43359375 9.35546875 C-4.95050781 9.89816406 -5.46742188 10.44085938 -6 11 C-6.66 10.67 -7.32 10.34 -8 10 C-5.83735988 6.01618925 -3.28788824 3.11016455 0 0 Z " fill="#172314" transform="translate(615,311)"/>
<path d="M0 0 C2.64752004 2.57784846 4.94432065 4.91648098 7 8 C6.67 8.99 6.34 9.98 6 11 C5.566875 10.236875 5.13375 9.47375 4.6875 8.6875 C3.17334484 6.03619492 3.17334484 6.03619492 1.3125 4.375 C0 3 0 3 0 0 Z " fill="#1A2516" transform="translate(454,651)"/>
<path d="M0 0 C0.66 0.33 1.32 0.66 2 1 C1.67 4.63 1.34 8.26 1 12 C-1.23551759 8.64672361 -1.17283528 8.09256343 -0.625 4.3125 C-0.51414062 3.50425781 -0.40328125 2.69601562 -0.2890625 1.86328125 C-0.19367187 1.24839844 -0.09828125 0.63351562 0 0 Z " fill="#30392A" transform="translate(674,564)"/>
<path d="M0 0 C0.99 0.33 1.98 0.66 3 1 C0.36 3.64 -2.28 6.28 -5 9 C-5.33 8.01 -5.66 7.02 -6 6 C-5.34 6 -4.68 6 -4 6 C-3.71125 5.38125 -3.4225 4.7625 -3.125 4.125 C-2 2 -2 2 0 0 Z " fill="#2D3728" transform="translate(639,484)"/>
<path d="M0 0 C0 0.66 0 1.32 0 2 C-6.45 6.09326923 -6.45 6.09326923 -9.234375 5.62109375 C-9.81703125 5.41613281 -10.3996875 5.21117187 -11 5 C-9.54462432 4.16151196 -8.08559627 3.32936066 -6.625 2.5 C-5.81289063 2.0359375 -5.00078125 1.571875 -4.1640625 1.09375 C-2 0 -2 0 0 0 Z " fill="#DC881D" transform="translate(491,392)"/>
<path d="M0 0 C0.66 0 1.32 0 2 0 C0.55049545 3.7910119 -1.15172566 7.3874638 -3 11 C-3.75 9.4375 -3.75 9.4375 -4 7 C-2.86915563 4.49713591 -1.47860484 2.32992278 0 0 Z " fill="#1B2615" transform="translate(371,593)"/>
<path d="M0 0 C1.5625 1.25 1.5625 1.25 3 3 C2.72963853 5.97397616 2.14553974 6.85446026 0 9 C-0.87890625 2.84765625 -0.87890625 2.84765625 -1 1 C-0.67 0.67 -0.34 0.34 0 0 Z " fill="#2A3427" transform="translate(277,342)"/>
<path d="M0 0 C0.66 0.33 1.32 0.66 2 1 C0.02 3.31 -1.96 5.62 -4 8 C-4.66 7.67 -5.32 7.34 -6 7 C-4.77065985 3.31197956 -3.06140622 2.27643027 0 0 Z " fill="#E08A1A" transform="translate(472,402)"/>
<path d="M0 0 C1.65 0 3.3 0 5 0 C5.33 0.99 5.66 1.98 6 3 C4.68 4.32 3.36 5.64 2 7 C2.33 5.02 2.66 3.04 3 1 C2.01 0.67 1.02 0.34 0 0 Z " fill="#172113" transform="translate(565,650)"/>
<path d="M0 0 C4 1 4 1 4 1 Z " fill="#29382B" transform="translate(557,625)"/>
<path d="" fill="#505B4C" transform="translate(0,0)"/>
<path d="M0 0 C2 1 2 1 2 1 Z " fill="#2C362C" transform="translate(581,625)"/>
<path d="M0 0 C2 1 2 1 2 1 Z " fill="#2B382D" transform="translate(540,625)"/>
<path d="M0 0 C2 1 2 1 2 1 Z " fill="#2F3B2F" transform="translate(500,625)"/>
<path d="M0 0 C2 1 2 1 2 1 Z " fill="#313C30" transform="translate(479,625)"/>
<path d="M0 0 C2 1 2 1 2 1 Z " fill="#303D2E" transform="translate(459,625)"/>
<path d="M0 0 C2 1 2 1 2 1 Z " fill="#304032" transform="translate(584,554)"/>
<path d="" fill="#475341" transform="translate(0,0)"/>
<path d="M0 0 C2 1 2 1 2 1 Z " fill="#364438" transform="translate(384,380)"/>
<path d="" fill="#595F51" transform="translate(0,0)"/>
<path d="" fill="#323F32" transform="translate(0,0)"/>
<path d="" fill="#2F3B2F" transform="translate(0,0)"/>
<path d="" fill="#3B4339" transform="translate(0,0)"/>
<path d="" fill="#4C5346" transform="translate(0,0)"/>
<path d="" fill="#4E5B4B" transform="translate(0,0)"/>
<path d="" fill="#3B4638" transform="translate(0,0)"/>
<path d="" fill="#2E3B30" transform="translate(0,0)"/>
<path d="" fill="#2F3E32" transform="translate(0,0)"/>
<path d="" fill="#2F3B2E" transform="translate(0,0)"/>
<path d="" fill="#2E3B30" transform="translate(0,0)"/>
<path d="" fill="#2D3A2D" transform="translate(0,0)"/>
<path d="" fill="#2C3A2D" transform="translate(0,0)"/>
<path d="" fill="#2E3A2E" transform="translate(0,0)"/>
<path d="" fill="#2C3B2F" transform="translate(0,0)"/>
<path d="" fill="#2B392E" transform="translate(0,0)"/>
<path d="" fill="#2D392D" transform="translate(0,0)"/>
<path d="" fill="#2E3B30" transform="translate(0,0)"/>
<path d="" fill="#2D3A2F" transform="translate(0,0)"/>
<path d="" fill="#303E32" transform="translate(0,0)"/>
<path d="" fill="#2F3D30" transform="translate(0,0)"/>
<path d="" fill="#2D3B2F" transform="translate(0,0)"/>
<path d="" fill="#2F3D2F" transform="translate(0,0)"/>
<path d="" fill="#303D2F" transform="translate(0,0)"/>
<path d="" fill="#2F3C2E" transform="translate(0,0)"/>
<path d="" fill="#313D2F" transform="translate(0,0)"/>
<path d="" fill="#324031" transform="translate(0,0)"/>
<path d="" fill="#313D31" transform="translate(0,0)"/>
<path d="" fill="#323F32" transform="translate(0,0)"/>
<path d="" fill="#2F3B31" transform="translate(0,0)"/>
<path d="" fill="#364132" transform="translate(0,0)"/>
<path d="" fill="#2F4032" transform="translate(0,0)"/>
<path d="" fill="#304032" transform="translate(0,0)"/>
<path d="" fill="#344132" transform="translate(0,0)"/>
<path d="" fill="#475244" transform="translate(0,0)"/>
<path d="" fill="#4C5546" transform="translate(0,0)"/>
<path d="" fill="#4B4D30" transform="translate(0,0)"/>
<path d="" fill="#464D3B" transform="translate(0,0)"/>
<path d="" fill="#595834" transform="translate(0,0)"/>
<path d="" fill="#434F3F" transform="translate(0,0)"/>
<path d="" fill="#475040" transform="translate(0,0)"/>
<path d="" fill="#374236" transform="translate(0,0)"/>
<path d="" fill="#303C31" transform="translate(0,0)"/>
<path d="" fill="#343E35" transform="translate(0,0)"/>
<path d="" fill="#354136" transform="translate(0,0)"/>
<path d="" fill="#384238" transform="translate(0,0)"/>
<path d="" fill="#4D5742" transform="translate(0,0)"/>
<path d="" fill="#394937" transform="translate(0,0)"/>
<path d="" fill="#3B4A38" transform="translate(0,0)"/>
<path d="" fill="#4D5647" transform="translate(0,0)"/>
<path d="" fill="#434F45" transform="translate(0,0)"/>
<path d="" fill="#4F5745" transform="translate(0,0)"/>
<path d="" fill="#4D5546" transform="translate(0,0)"/>
<path d="" fill="#4B5544" transform="translate(0,0)"/>
<path d="" fill="#4E574D" transform="translate(0,0)"/>
<path d="" fill="#344436" transform="translate(0,0)"/>
<path d="" fill="#384638" transform="translate(0,0)"/>
<path d="" fill="#374537" transform="translate(0,0)"/>
<path d="" fill="#3D4432" transform="translate(0,0)"/>
<path d="" fill="#4C4A2C" transform="translate(0,0)"/>
<path d="" fill="#5D5230" transform="translate(0,0)"/>
<path d="" fill="#3B4737" transform="translate(0,0)"/>
<path d="" fill="#373F2B" transform="translate(0,0)"/>
<path d="" fill="#36463A" transform="translate(0,0)"/>
<path d="" fill="#3D4939" transform="translate(0,0)"/>
<path d="" fill="#3C493B" transform="translate(0,0)"/>
<path d="" fill="#404A3E" transform="translate(0,0)"/>
<path d="" fill="#384330" transform="translate(0,0)"/>
<path d="" fill="#374133" transform="translate(0,0)"/>
<path d="" fill="#353F32" transform="translate(0,0)"/>
<path d="" fill="#424D3E" transform="translate(0,0)"/>
<path d="" fill="#354335" transform="translate(0,0)"/>
<path d="" fill="#465442" transform="translate(0,0)"/>
<path d="" fill="#4E594A" transform="translate(0,0)"/>
<path d="" fill="#525B4B" transform="translate(0,0)"/>
<path d="" fill="#49564A" transform="translate(0,0)"/>
<path d="" fill="#545C4F" transform="translate(0,0)"/>
<path d="" fill="#566051" transform="translate(0,0)"/>
<path d="" fill="#5C6757" transform="translate(0,0)"/>
</svg>
